<svg width="40" height="40" viewBox="0 0 40 40" fill="none" xmlns="http://www.w3.org/2000/svg">
<g clip-path="url(#clip0_60_1813)">
<path d="M39.9609 28.2399C39.8672 30.3652 39.5235 31.8264 39.0312 33.0925C38.5233 34.4365 37.7419 35.6397 36.7181 36.64C35.7178 37.6558 34.5067 38.4451 33.1783 38.9451C31.9048 39.4375 30.4513 39.7811 28.326 39.8749C26.1847 39.9765 25.505 40 20.0742 40C14.6435 40 13.9637 39.9765 11.8304 39.8828C9.70507 39.7891 8.24391 39.4451 6.9781 38.953C5.63384 38.4451 4.4306 37.6637 3.43034 36.64C2.41452 35.6397 1.62549 34.4285 1.12521 33.1002C0.632861 31.8264 0.289166 30.3732 0.195459 28.2478C0.0938156 26.1066 0.0703125 25.4268 0.0703125 19.9961C0.0703125 14.5653 0.0938156 13.8856 0.187523 11.7523C0.28123 9.62694 0.62523 8.16578 1.11758 6.89967C1.62549 5.55571 2.41452 4.35247 3.43034 3.35222C4.4306 2.3364 5.64177 1.54706 6.97016 1.04708C8.24391 0.554737 9.69713 0.21104 11.8228 0.117332C13.9558 0.0233231 14.6358 0.00012207 20.0666 0.00012207C25.4973 0.00012207 26.1771 0.0233231 28.3104 0.117332C30.4357 0.21104 31.8969 0.554737 33.1627 1.04708C35.8509 2.08641 37.9763 4.21176 39.0156 6.89967C39.5076 8.17341 39.8516 9.62694 39.9454 11.7523C40.0391 13.8856 40.0626 14.5653 40.0626 19.9961C40.0626 25.4268 40.0546 26.1066 39.9609 28.2399ZM36.3588 11.9086C36.2728 9.95507 35.9446 8.90018 35.6711 8.19691C34.999 6.45433 33.616 5.0713 31.8734 4.39918C31.1701 4.12569 30.1076 3.79756 28.1617 3.71178C26.052 3.61777 25.4192 3.59457 20.0822 3.59457C14.7451 3.59457 14.1044 3.61777 12.0023 3.71178C10.0488 3.79756 8.99387 4.12569 8.29061 4.39918C7.42343 4.71967 6.63409 5.22758 5.99341 5.89178C5.32921 6.5404 4.8213 7.3218 4.5008 8.18898C4.22731 8.89224 3.89919 9.95507 3.81341 11.9006C3.7194 14.0104 3.6962 14.6435 3.6962 19.9805C3.6962 25.3176 3.7194 25.9583 3.81341 28.0601C3.89919 30.0136 4.22731 31.0685 4.5008 31.7718C4.8213 32.6392 5.32921 33.4283 6.00134 34.0693C6.64966 34.7335 7.43106 35.2414 8.29854 35.5616C9.00181 35.8351 10.0646 36.1632 12.0102 36.2493C14.12 36.343 14.7531 36.3665 20.0898 36.3665C25.4348 36.3665 26.0675 36.343 28.1697 36.2493C30.1232 36.1632 31.1781 35.8351 31.8813 35.5616C32.7485 35.2414 33.5378 34.7335 34.1785 34.0693C34.8427 33.4207 35.3506 32.6392 35.6711 31.7718C35.9446 31.0685 36.2728 30.006 36.3588 28.0601C36.4525 25.9503 36.476 25.3176 36.476 19.9805C36.476 14.6435 36.4525 14.0184 36.3588 11.9086Z" fill="white"/>
<path d="M20.0743 9.72852C14.4015 9.72852 9.79883 14.3309 9.79883 20.004C9.79883 25.6771 14.4015 30.2794 20.0743 30.2794C25.7474 30.2794 30.3497 25.6771 30.3497 20.004C30.3497 14.3309 25.7474 9.72852 20.0743 9.72852ZM20.0743 26.6694C16.3941 26.6694 13.4088 23.6845 13.4088 20.004C13.4088 16.3234 16.3941 13.3385 20.0743 13.3385C23.7548 13.3385 26.7397 16.3234 26.7397 20.004C26.7397 23.6845 23.7548 26.6694 20.0743 26.6694Z" fill="white"/>
<path d="M33.1549 9.32218C33.1549 10.6469 32.0808 11.721 30.7558 11.721C29.4311 11.721 28.3569 10.6469 28.3569 9.32218C28.3569 7.99716 29.4311 6.92334 30.7558 6.92334C32.0808 6.92334 33.1549 7.99716 33.1549 9.32218Z" fill="white"/>
</g>
<defs>
<clipPath id="clip0_60_1813">
<rect width="40" height="40" fill="white"/>
</clipPath>
</defs>
</svg>
