<svg width="40" height="40" viewBox="0 0 40 40" fill="none" xmlns="http://www.w3.org/2000/svg">
<path fill-rule="evenodd" clip-rule="evenodd" d="M10.3998 4L12.7998 11.2V16H14.3998V11.2L16.7998 4H15.1998L13.5998 8.8L11.9998 4H10.3998ZM19.1998 7.2C18.3467 7.2 17.9279 7.33437 17.4061 7.7625C16.9061 8.18437 16.7686 8.50938 16.7998 9.6V13.6C16.7998 14.3969 16.9311 14.9219 17.4123 15.3875C17.9123 15.8531 18.3842 16 19.1998 16C20.0529 16 20.5186 15.8531 20.9998 15.3875C21.4998 14.9406 21.5998 14.3969 21.5998 13.6V9.6C21.5998 8.89375 21.4748 8.225 20.9904 7.77812C20.4904 7.31875 19.9748 7.2 19.1998 7.2ZM23.1998 7.2V14.4C23.1998 15.1781 23.9842 16 24.7998 16C25.6154 16 26.0467 15.5906 26.3998 15.2V16H27.9998V7.2H26.3998V13.6C26.3904 14.1469 25.7467 14.4 25.5998 14.4C25.4342 14.4 24.7998 14.3656 24.7998 13.6V7.2H23.1998ZM19.1998 8.8C19.4404 8.8 19.9998 8.79688 19.9998 9.6V13.6C19.9998 14.375 19.4592 14.4 19.1998 14.4C18.9592 14.4 18.3998 14.3906 18.3998 13.6V9.6C18.3998 8.94688 18.7467 8.8 19.1998 8.8ZM20.3654 17.5375C16.3311 17.5281 12.2998 17.5375 8.26543 17.6C7.72168 17.6156 7.17793 17.6937 6.65918 17.8625C6.24043 18.0031 5.84043 18.1969 5.47793 18.45C5.0498 18.75 4.68105 19.1281 4.39355 19.5625C4.19043 19.8656 4.02793 20.1969 3.90605 20.5406C3.70605 21.0938 3.61543 21.6781 3.5998 22.2625C3.55918 24.8875 3.55918 27.5125 3.5998 30.1375C3.61543 30.6375 3.68105 31.1312 3.8123 31.6156C4.06543 32.5281 4.5498 33.3812 5.25605 34.0219C5.45918 34.2062 5.67793 34.3719 5.9123 34.5156C6.1998 34.6937 6.50918 34.8406 6.83106 34.95C7.29356 35.1062 7.77793 35.1844 8.26543 35.2C16.3529 35.35 24.4467 35.325 32.5342 35.2C33.0779 35.1844 33.6217 35.1062 34.1404 34.9375C34.5592 34.7969 34.9592 34.6031 35.3217 34.35C35.7498 34.05 36.1186 33.6719 36.4092 33.2375C36.6092 32.9344 36.7717 32.6031 36.8967 32.2594C37.0936 31.7062 37.1842 31.1219 37.1998 30.5375C37.2404 27.8031 37.2123 25.0656 37.1998 22.3344C37.1904 21.7437 37.1061 21.1531 36.9123 20.5969C36.7967 20.25 36.6373 19.9156 36.4373 19.6094C36.1561 19.1719 35.7904 18.7875 35.3686 18.4844C34.9936 18.2125 34.5779 18.0062 34.1404 17.8625C33.5998 17.6875 33.0342 17.6094 32.4654 17.6C28.4342 17.5812 24.3998 17.5469 20.3654 17.5375ZM26.4748 19.15C28.4842 19.1531 30.4936 19.1687 32.4998 19.2C32.8186 19.2094 33.1373 19.2469 33.4467 19.325C33.9436 19.4562 34.4123 19.7031 34.7717 20.0719C34.8936 20.1969 34.9998 20.3312 35.0967 20.4781C35.2311 20.6875 35.3373 20.9156 35.4123 21.1531C35.5373 21.5219 35.5873 21.9094 35.5998 22.3C35.6404 25.0344 35.6404 27.7687 35.5998 30.5C35.5873 30.8906 35.5373 31.2781 35.4123 31.6469C35.3373 31.8844 35.2311 32.1125 35.0967 32.3219C34.9998 32.4687 34.8936 32.6031 34.7717 32.7281C34.4123 33.0969 33.9436 33.3437 33.4467 33.475C33.1373 33.5531 32.8186 33.5906 32.4998 33.6C24.4529 33.725 16.4029 33.65 8.35293 33.6C8.00918 33.5937 7.67168 33.5437 7.34356 33.4344C7.1373 33.3625 6.9373 33.2687 6.75293 33.1531C6.60293 33.0625 6.45918 32.9562 6.33105 32.8375C5.8373 32.3875 5.5123 31.7844 5.34355 31.1469C5.25293 30.8062 5.2123 30.4531 5.1998 30.1C5.15918 27.5187 5.1873 24.9344 5.1998 22.35C5.20605 21.9562 5.25605 21.5656 5.3748 21.1906C5.4498 20.95 5.55293 20.7219 5.6873 20.5094C5.78418 20.3531 5.8998 20.2031 6.02793 20.0719C6.3998 19.6906 6.88106 19.4437 7.39356 19.3156C7.7248 19.2344 8.06543 19.2031 8.40293 19.2C14.4279 19.2 20.4529 19.1312 26.4748 19.15ZM8.7998 20.8V22.4H10.3998V32H11.9998V22.4H13.5998V20.8H8.7998ZM20.7998 20.8V32H22.3998V31.2C22.7092 31.5594 23.1592 32.0094 23.9998 32C24.4967 31.9937 24.8811 31.5937 25.1373 31.2781C25.3998 30.9625 25.5998 30.5937 25.5998 30V25.2C25.5998 24.5094 25.3811 24.0406 25.1029 23.6875C24.8248 23.3375 24.4186 23.15 23.8998 23.15C23.6373 23.15 23.3779 23.225 23.1217 23.3562C22.8592 23.4844 22.5842 23.7125 22.3998 24V20.8H20.7998ZM14.3998 23.2V30.4C14.3998 30.9 14.6154 31.1469 14.7998 31.3875C15.0061 31.65 15.4467 32 15.8342 32C16.1467 32 16.4842 32.0125 16.8154 31.825C17.1498 31.6594 17.3029 31.55 17.5998 31.2V32H19.1998V23.2H17.5998V29.6C17.4561 29.7875 17.4498 30.3937 16.7998 30.4C16.2154 30.4062 15.9998 29.7844 15.9998 29.6V23.2H14.3998ZM28.9592 23.2C28.1998 23.2 27.4967 23.3844 27.1217 23.7687C26.6561 24.2469 26.4029 24.7844 26.4029 25.5094V29.275C26.4029 30.0906 26.6248 30.725 27.0498 31.1875C27.4748 31.65 28.0686 31.875 28.8279 31.875C29.6592 31.875 30.2936 31.6687 30.6998 31.2219C31.1311 30.7969 31.1998 30.1469 31.1998 29.275V28.8H29.5998V29.2C29.5998 29.6812 29.5529 30.0531 29.4404 30.1844C29.3311 30.3312 29.1248 30.3969 28.7998 30.4C28.5061 30.4031 28.2842 30.3219 28.1748 30.1375C28.0592 29.9687 27.9998 29.6844 27.9998 29.2375V28H31.1998V25.5094C31.1998 24.7094 31.0686 24.2125 30.6561 23.7875C30.2529 23.3625 29.7186 23.2 28.9592 23.2ZM23.1998 24.4C23.6404 24.4 23.9998 24.8 23.9998 25.6V29.6187C23.9998 30.0594 23.6404 30.4 23.1998 30.4C22.7592 30.4 22.4061 30.2312 22.3998 30V25.2C22.4061 24.7969 22.7592 24.4 23.1998 24.4ZM28.7998 24.8C29.2404 24.8 29.5998 25.1094 29.5998 25.6V26.4H27.9998V25.6C28.0061 25.1719 28.3592 24.8 28.7998 24.8Z" fill="white"/>
</svg>
