<svg width="127" height="57" viewBox="0 0 127 57" fill="none" xmlns="http://www.w3.org/2000/svg">
<rect x="36" y="9" width="91" height="38" rx="12" fill="#1F5F5B" fill-opacity="0.7"/>
<path d="M28.2966 55.7273C43.372 55.7273 55.5931 43.4762 55.5931 28.3636C55.5931 13.2511 43.372 1 28.2966 1C13.2211 1 1 13.2511 1 28.3636C1 43.4762 13.2211 55.7273 28.2966 55.7273Z" fill="white" stroke="#061A23" stroke-miterlimit="10"/>
<path d="M25.1771 23.765C27.5971 22.8821 28.6111 19.5556 27.4419 16.335C26.2727 13.1145 23.363 11.2195 20.9429 12.1025C18.5229 12.9854 17.5089 16.3119 18.6781 19.5324C19.8473 22.753 22.757 24.6479 25.1771 23.765Z" fill="#061A23" stroke="#061A23" stroke-miterlimit="10"/>
<path d="M38.6557 20.0098C40.1729 16.9387 39.5321 13.5203 37.2243 12.3745C34.9165 11.2288 31.8158 12.7896 30.2985 15.8607C28.7812 18.9318 29.4221 22.3502 31.7299 23.4959C34.0376 24.6417 37.1384 23.0809 38.6557 20.0098Z" fill="#061A23" stroke="#061A23" stroke-miterlimit="10"/>
<path d="M44.6939 31.1279C46.7182 28.3659 46.6766 24.8877 44.6012 23.3591C42.5257 21.8305 39.2022 22.8303 37.1779 25.5923C35.1537 28.3542 35.1952 31.8324 37.2707 33.3611C39.3462 34.8897 42.6696 33.8898 44.6939 31.1279Z" fill="#061A23"/>
<path d="M18.0298 33.9685C20.3569 32.8628 21.0563 29.4559 19.5921 26.3591C18.1278 23.2623 15.0543 21.6483 12.7272 22.754C10.4001 23.8597 9.70069 27.2666 11.165 30.3634C12.6292 33.4602 15.7027 35.0742 18.0298 33.9685Z" fill="#061A23" stroke="#061A23" stroke-miterlimit="10"/>
<path d="M28.3875 42.3236C31.3294 42.3236 33.7144 38.7451 33.7144 34.3309C33.7144 29.9166 31.3294 26.3381 28.3875 26.3381C25.4455 26.3381 23.0605 29.9166 23.0605 34.3309C23.0605 38.7451 25.4455 42.3236 28.3875 42.3236Z" fill="#061A23" stroke="#061A23" stroke-miterlimit="10"/>
<path d="M28.2967 43.0709C33.4204 43.0709 37.5739 40.6964 37.5739 37.7673C37.5739 34.8381 33.4204 32.4636 28.2967 32.4636C23.1731 32.4636 19.0195 34.8381 19.0195 37.7673C19.0195 40.6964 23.1731 43.0709 28.2967 43.0709Z" fill="#061A23" stroke="#061A23" stroke-miterlimit="10"/>
<path d="M62.8203 17.2852L61.2734 22H60.0273L62.1406 16.3125H62.9336L62.8203 17.2852ZM64.1055 22L62.5547 17.2852L62.4297 16.3125H63.2305L65.3555 22H64.1055ZM64.0352 19.8828V20.8008H61.0312V19.8828H64.0352ZM66.7891 18.6758V22H65.6641V17.7734H66.7188L66.7891 18.6758ZM66.625 19.7383H66.3203C66.3203 19.4258 66.3607 19.1445 66.4414 18.8945C66.5221 18.6419 66.6354 18.4271 66.7812 18.25C66.9271 18.0703 67.1003 17.9336 67.3008 17.8398C67.5039 17.7435 67.7305 17.6953 67.9805 17.6953C68.1784 17.6953 68.3594 17.724 68.5234 17.7812C68.6875 17.8385 68.8281 17.9297 68.9453 18.0547C69.0651 18.1797 69.1562 18.3451 69.2188 18.5508C69.2839 18.7565 69.3164 19.0078 69.3164 19.3047V22H68.1836V19.3008C68.1836 19.1133 68.1576 18.9674 68.1055 18.8633C68.0534 18.7591 67.9766 18.6862 67.875 18.6445C67.776 18.6003 67.6536 18.5781 67.5078 18.5781C67.3568 18.5781 67.2253 18.6081 67.1133 18.668C67.0039 18.7279 66.9128 18.8112 66.8398 18.918C66.7695 19.0221 66.7161 19.1445 66.6797 19.2852C66.6432 19.4258 66.625 19.5768 66.625 19.7383ZM71.3594 17.7734V22H70.2305V17.7734H71.3594ZM70.1602 16.6719C70.1602 16.5078 70.2174 16.3724 70.332 16.2656C70.4466 16.1589 70.6003 16.1055 70.793 16.1055C70.9831 16.1055 71.1354 16.1589 71.25 16.2656C71.3672 16.3724 71.4258 16.5078 71.4258 16.6719C71.4258 16.8359 71.3672 16.9714 71.25 17.0781C71.1354 17.1849 70.9831 17.2383 70.793 17.2383C70.6003 17.2383 70.4466 17.1849 70.332 17.0781C70.2174 16.9714 70.1602 16.8359 70.1602 16.6719ZM73.4141 18.6484V22H72.2852V17.7734H73.3438L73.4141 18.6484ZM73.2578 19.7383H72.9453C72.9453 19.444 72.9805 19.1732 73.0508 18.9258C73.1237 18.6758 73.2292 18.4596 73.3672 18.2773C73.5078 18.0924 73.681 17.9492 73.8867 17.8477C74.0924 17.7461 74.3307 17.6953 74.6016 17.6953C74.7891 17.6953 74.9609 17.724 75.1172 17.7812C75.2734 17.8359 75.4076 17.9232 75.5195 18.043C75.6341 18.1602 75.7227 18.3138 75.7852 18.5039C75.8477 18.6914 75.8789 18.9167 75.8789 19.1797V22H74.7539V19.3047C74.7539 19.112 74.7279 18.9635 74.6758 18.8594C74.6237 18.7552 74.5495 18.6823 74.4531 18.6406C74.3594 18.599 74.2461 18.5781 74.1133 18.5781C73.9674 18.5781 73.8398 18.6081 73.7305 18.668C73.6237 18.7279 73.5352 18.8112 73.4648 18.918C73.3945 19.0221 73.3424 19.1445 73.3086 19.2852C73.2747 19.4258 73.2578 19.5768 73.2578 19.7383ZM75.7734 19.6094L75.3711 19.6602C75.3711 19.3841 75.4049 19.1276 75.4727 18.8906C75.543 18.6536 75.6458 18.4453 75.7812 18.2656C75.9193 18.0859 76.0898 17.9466 76.293 17.8477C76.4961 17.7461 76.7305 17.6953 76.9961 17.6953C77.1992 17.6953 77.3841 17.7253 77.5508 17.7852C77.7174 17.8424 77.8594 17.9349 77.9766 18.0625C78.0964 18.1875 78.1875 18.3516 78.25 18.5547C78.3151 18.7578 78.3477 19.0065 78.3477 19.3008V22H77.2188V19.3008C77.2188 19.1055 77.1927 18.957 77.1406 18.8555C77.0911 18.7513 77.0182 18.6797 76.9219 18.6406C76.8281 18.599 76.7161 18.5781 76.5859 18.5781C76.4505 18.5781 76.332 18.6055 76.2305 18.6602C76.1289 18.7122 76.0443 18.7852 75.9766 18.8789C75.9089 18.9727 75.8581 19.082 75.8242 19.207C75.7904 19.3294 75.7734 19.4635 75.7734 19.6094ZM81.5 21.0469V19.1641C81.5 19.0286 81.4779 18.9128 81.4336 18.8164C81.3893 18.7174 81.3203 18.6406 81.2266 18.5859C81.1354 18.5312 81.0169 18.5039 80.8711 18.5039C80.7461 18.5039 80.638 18.526 80.5469 18.5703C80.4557 18.612 80.3854 18.6732 80.3359 18.7539C80.2865 18.832 80.2617 18.9245 80.2617 19.0312H79.1367C79.1367 18.8516 79.1784 18.681 79.2617 18.5195C79.3451 18.3581 79.4661 18.2161 79.625 18.0938C79.7839 17.9688 79.9727 17.8711 80.1914 17.8008C80.4128 17.7305 80.6602 17.6953 80.9336 17.6953C81.2617 17.6953 81.5534 17.75 81.8086 17.8594C82.0638 17.9688 82.2643 18.1328 82.4102 18.3516C82.5586 18.5703 82.6328 18.8438 82.6328 19.1719V20.9805C82.6328 21.2122 82.6471 21.4023 82.6758 21.5508C82.7044 21.6966 82.7461 21.8242 82.8008 21.9336V22H81.6641C81.6094 21.8854 81.5677 21.7422 81.5391 21.5703C81.513 21.3958 81.5 21.2214 81.5 21.0469ZM81.6484 19.4258L81.6562 20.0625H81.0273C80.8789 20.0625 80.75 20.0794 80.6406 20.1133C80.5312 20.1471 80.4414 20.1953 80.3711 20.2578C80.3008 20.3177 80.2487 20.388 80.2148 20.4688C80.1836 20.5495 80.168 20.638 80.168 20.7344C80.168 20.8307 80.1901 20.918 80.2344 20.9961C80.2786 21.0716 80.3424 21.1315 80.4258 21.1758C80.5091 21.2174 80.6068 21.2383 80.7188 21.2383C80.888 21.2383 81.0352 21.2044 81.1602 21.1367C81.2852 21.069 81.3815 20.9857 81.4492 20.8867C81.5195 20.7878 81.556 20.694 81.5586 20.6055L81.8555 21.082C81.8138 21.1888 81.7565 21.2995 81.6836 21.4141C81.6133 21.5286 81.5234 21.6367 81.4141 21.7383C81.3047 21.8372 81.1732 21.9193 81.0195 21.9844C80.8659 22.0469 80.6836 22.0781 80.4727 22.0781C80.2044 22.0781 79.9609 22.0247 79.7422 21.918C79.526 21.8086 79.3542 21.6589 79.2266 21.4688C79.1016 21.276 79.0391 21.0573 79.0391 20.8125C79.0391 20.5911 79.0807 20.3945 79.1641 20.2227C79.2474 20.0508 79.3698 19.9062 79.5312 19.7891C79.6953 19.6693 79.8997 19.5794 80.1445 19.5195C80.3893 19.457 80.6732 19.4258 80.9961 19.4258H81.6484ZM84.6875 16V22H83.5586V16H84.6875ZM90.6406 20.5117C90.6406 20.4102 90.625 20.319 90.5938 20.2383C90.5651 20.1549 90.5104 20.0794 90.4297 20.0117C90.349 19.9414 90.2357 19.8724 90.0898 19.8047C89.944 19.737 89.7552 19.6667 89.5234 19.5938C89.2656 19.5104 89.0208 19.4167 88.7891 19.3125C88.5599 19.2083 88.3568 19.0872 88.1797 18.9492C88.0052 18.8086 87.8672 18.6458 87.7656 18.4609C87.6667 18.276 87.6172 18.0612 87.6172 17.8164C87.6172 17.5794 87.6693 17.3646 87.7734 17.1719C87.8776 16.9766 88.0234 16.8099 88.2109 16.6719C88.3984 16.5312 88.6198 16.4232 88.875 16.3477C89.1328 16.2721 89.4154 16.2344 89.7227 16.2344C90.1419 16.2344 90.5078 16.3099 90.8203 16.4609C91.1328 16.612 91.375 16.819 91.5469 17.082C91.7214 17.3451 91.8086 17.6458 91.8086 17.9844H90.6445C90.6445 17.8177 90.6094 17.6719 90.5391 17.5469C90.4714 17.4193 90.3672 17.319 90.2266 17.2461C90.0885 17.1732 89.9141 17.1367 89.7031 17.1367C89.5 17.1367 89.3307 17.168 89.1953 17.2305C89.0599 17.2904 88.9583 17.3724 88.8906 17.4766C88.8229 17.5781 88.7891 17.6927 88.7891 17.8203C88.7891 17.9167 88.8125 18.0039 88.8594 18.082C88.9089 18.1602 88.9818 18.2331 89.0781 18.3008C89.1745 18.3685 89.293 18.4323 89.4336 18.4922C89.5742 18.5521 89.737 18.6107 89.9219 18.668C90.2318 18.7617 90.5039 18.8672 90.7383 18.9844C90.9753 19.1016 91.1732 19.2331 91.332 19.3789C91.4909 19.5247 91.6107 19.6901 91.6914 19.875C91.7721 20.0599 91.8125 20.2695 91.8125 20.5039C91.8125 20.7513 91.7643 20.9727 91.668 21.168C91.5716 21.3633 91.4323 21.5286 91.25 21.6641C91.0677 21.7995 90.8503 21.9023 90.5977 21.9727C90.3451 22.043 90.0625 22.0781 89.75 22.0781C89.4688 22.0781 89.1914 22.0417 88.918 21.9688C88.6445 21.8932 88.3958 21.7799 88.1719 21.6289C87.9505 21.4779 87.7734 21.2852 87.6406 21.0508C87.5078 20.8164 87.4414 20.5391 87.4414 20.2188H88.6172C88.6172 20.3958 88.6445 20.5456 88.6992 20.668C88.7539 20.7904 88.8307 20.8893 88.9297 20.9648C89.0312 21.0404 89.151 21.0951 89.2891 21.1289C89.4297 21.1628 89.5833 21.1797 89.75 21.1797C89.9531 21.1797 90.1198 21.151 90.25 21.0938C90.3828 21.0365 90.4805 20.957 90.543 20.8555C90.6081 20.7539 90.6406 20.6393 90.6406 20.5117ZM93.6367 16V22H92.5117V16H93.6367ZM93.4766 19.7383H93.168C93.1706 19.444 93.2096 19.1732 93.2852 18.9258C93.3607 18.6758 93.4688 18.4596 93.6094 18.2773C93.75 18.0924 93.918 17.9492 94.1133 17.8477C94.3112 17.7461 94.5299 17.6953 94.7695 17.6953C94.9779 17.6953 95.1667 17.7253 95.3359 17.7852C95.5078 17.8424 95.6549 17.9362 95.7773 18.0664C95.9023 18.194 95.9987 18.362 96.0664 18.5703C96.1341 18.7786 96.168 19.0312 96.168 19.3281V22H95.0352V19.3203C95.0352 19.1328 95.0078 18.9857 94.9531 18.8789C94.901 18.7695 94.8242 18.6927 94.7227 18.6484C94.6237 18.6016 94.5013 18.5781 94.3555 18.5781C94.194 18.5781 94.056 18.6081 93.9414 18.668C93.8294 18.7279 93.7396 18.8112 93.6719 18.918C93.6042 19.0221 93.5547 19.1445 93.5234 19.2852C93.4922 19.4258 93.4766 19.5768 93.4766 19.7383ZM98.9688 22.0781C98.6406 22.0781 98.3464 22.026 98.0859 21.9219C97.8255 21.8151 97.6042 21.668 97.4219 21.4805C97.2422 21.293 97.1042 21.0755 97.0078 20.8281C96.9115 20.5781 96.8633 20.3125 96.8633 20.0312V19.875C96.8633 19.5547 96.9089 19.2617 97 18.9961C97.0911 18.7305 97.2214 18.5 97.3906 18.3047C97.5625 18.1094 97.7708 17.9596 98.0156 17.8555C98.2604 17.7487 98.5365 17.6953 98.8438 17.6953C99.1432 17.6953 99.4089 17.7448 99.6406 17.8438C99.8724 17.9427 100.066 18.0833 100.223 18.2656C100.382 18.4479 100.501 18.6667 100.582 18.9219C100.663 19.1745 100.703 19.4557 100.703 19.7656V20.2344H97.3438V19.4844H99.5977V19.3984C99.5977 19.2422 99.569 19.1029 99.5117 18.9805C99.457 18.8555 99.3737 18.7565 99.2617 18.6836C99.1497 18.6107 99.0065 18.5742 98.832 18.5742C98.6836 18.5742 98.556 18.6068 98.4492 18.6719C98.3424 18.737 98.2552 18.8281 98.1875 18.9453C98.1224 19.0625 98.0729 19.2005 98.0391 19.3594C98.0078 19.5156 97.9922 19.6875 97.9922 19.875V20.0312C97.9922 20.2005 98.0156 20.3568 98.0625 20.5C98.112 20.6432 98.181 20.7669 98.2695 20.8711C98.3607 20.9753 98.4701 21.056 98.5977 21.1133C98.7279 21.1706 98.875 21.1992 99.0391 21.1992C99.2422 21.1992 99.431 21.1602 99.6055 21.082C99.7826 21.0013 99.9349 20.8802 100.062 20.7188L100.609 21.3125C100.521 21.4401 100.4 21.5625 100.246 21.6797C100.095 21.7969 99.9128 21.8932 99.6992 21.9688C99.4857 22.0417 99.2422 22.0781 98.9688 22.0781ZM102.531 16V22H101.402V16H102.531ZM105.531 17.7734V18.5703H103.07V17.7734H105.531ZM103.68 16.7305H104.805V20.7266C104.805 20.849 104.82 20.9427 104.852 21.0078C104.885 21.0729 104.935 21.1185 105 21.1445C105.065 21.168 105.147 21.1797 105.246 21.1797C105.316 21.1797 105.379 21.1771 105.434 21.1719C105.491 21.1641 105.539 21.1562 105.578 21.1484L105.582 21.9766C105.486 22.0078 105.382 22.0326 105.27 22.0508C105.158 22.069 105.034 22.0781 104.898 22.0781C104.651 22.0781 104.435 22.0378 104.25 21.957C104.068 21.8737 103.927 21.7409 103.828 21.5586C103.729 21.3763 103.68 21.1367 103.68 20.8398V16.7305ZM108.117 22.0781C107.789 22.0781 107.495 22.026 107.234 21.9219C106.974 21.8151 106.753 21.668 106.57 21.4805C106.391 21.293 106.253 21.0755 106.156 20.8281C106.06 20.5781 106.012 20.3125 106.012 20.0312V19.875C106.012 19.5547 106.057 19.2617 106.148 18.9961C106.24 18.7305 106.37 18.5 106.539 18.3047C106.711 18.1094 106.919 17.9596 107.164 17.8555C107.409 17.7487 107.685 17.6953 107.992 17.6953C108.292 17.6953 108.557 17.7448 108.789 17.8438C109.021 17.9427 109.215 18.0833 109.371 18.2656C109.53 18.4479 109.65 18.6667 109.73 18.9219C109.811 19.1745 109.852 19.4557 109.852 19.7656V20.2344H106.492V19.4844H108.746V19.3984C108.746 19.2422 108.717 19.1029 108.66 18.9805C108.605 18.8555 108.522 18.7565 108.41 18.6836C108.298 18.6107 108.155 18.5742 107.98 18.5742C107.832 18.5742 107.704 18.6068 107.598 18.6719C107.491 18.737 107.404 18.8281 107.336 18.9453C107.271 19.0625 107.221 19.2005 107.188 19.3594C107.156 19.5156 107.141 19.6875 107.141 19.875V20.0312C107.141 20.2005 107.164 20.3568 107.211 20.5C107.26 20.6432 107.329 20.7669 107.418 20.8711C107.509 20.9753 107.618 21.056 107.746 21.1133C107.876 21.1706 108.023 21.1992 108.188 21.1992C108.391 21.1992 108.579 21.1602 108.754 21.082C108.931 21.0013 109.083 20.8802 109.211 20.7188L109.758 21.3125C109.669 21.4401 109.548 21.5625 109.395 21.6797C109.243 21.7969 109.061 21.8932 108.848 21.9688C108.634 22.0417 108.391 22.0781 108.117 22.0781ZM111.617 18.6953V22H110.492V17.7734H111.551L111.617 18.6953ZM112.891 17.7461L112.871 18.7891C112.816 18.7812 112.75 18.7747 112.672 18.7695C112.596 18.7617 112.527 18.7578 112.465 18.7578C112.306 18.7578 112.168 18.7786 112.051 18.8203C111.936 18.8594 111.84 18.918 111.762 18.9961C111.686 19.0742 111.629 19.1693 111.59 19.2812C111.553 19.3932 111.533 19.5208 111.527 19.6641L111.301 19.5938C111.301 19.3203 111.328 19.069 111.383 18.8398C111.438 18.6081 111.517 18.4062 111.621 18.2344C111.728 18.0625 111.858 17.9297 112.012 17.8359C112.165 17.7422 112.341 17.6953 112.539 17.6953C112.602 17.6953 112.665 17.7005 112.73 17.7109C112.796 17.7188 112.849 17.7305 112.891 17.7461ZM62.7656 25.8164L60.8828 31H60.1133L62.2812 25.3125H62.7773L62.7656 25.8164ZM64.3438 31L62.457 25.8164L62.4453 25.3125H62.9414L65.1172 31H64.3438ZM64.2461 28.8945V29.5117H61.0508V28.8945H64.2461ZM68.4766 25V31H67.7539V25H68.4766ZM68.3047 28.7266L68.0039 28.7148C68.0065 28.4258 68.0495 28.1589 68.1328 27.9141C68.2161 27.6667 68.3333 27.4518 68.4844 27.2695C68.6354 27.0872 68.8151 26.9466 69.0234 26.8477C69.2344 26.7461 69.4674 26.6953 69.7227 26.6953C69.931 26.6953 70.1185 26.724 70.2852 26.7812C70.4518 26.8359 70.5938 26.9245 70.7109 27.0469C70.8307 27.1693 70.9219 27.3281 70.9844 27.5234C71.0469 27.7161 71.0781 27.9518 71.0781 28.2305V31H70.3516V28.2227C70.3516 28.0013 70.319 27.8242 70.2539 27.6914C70.1888 27.556 70.0938 27.4583 69.9688 27.3984C69.8438 27.3359 69.6901 27.3047 69.5078 27.3047C69.3281 27.3047 69.1641 27.3424 69.0156 27.418C68.8698 27.4935 68.7435 27.5977 68.6367 27.7305C68.5326 27.8633 68.4505 28.0156 68.3906 28.1875C68.3333 28.3568 68.3047 28.5365 68.3047 28.7266ZM71.9688 28.9336V28.8438C71.9688 28.5391 72.013 28.2565 72.1016 27.9961C72.1901 27.7331 72.3177 27.5052 72.4844 27.3125C72.651 27.1172 72.8529 26.9661 73.0898 26.8594C73.3268 26.75 73.5924 26.6953 73.8867 26.6953C74.1836 26.6953 74.4505 26.75 74.6875 26.8594C74.9271 26.9661 75.1302 27.1172 75.2969 27.3125C75.4661 27.5052 75.5951 27.7331 75.6836 27.9961C75.7721 28.2565 75.8164 28.5391 75.8164 28.8438V28.9336C75.8164 29.2383 75.7721 29.5208 75.6836 29.7812C75.5951 30.0417 75.4661 30.2695 75.2969 30.4648C75.1302 30.6576 74.9284 30.8086 74.6914 30.918C74.457 31.0247 74.1914 31.0781 73.8945 31.0781C73.5977 31.0781 73.3307 31.0247 73.0938 30.918C72.8568 30.8086 72.6536 30.6576 72.4844 30.4648C72.3177 30.2695 72.1901 30.0417 72.1016 29.7812C72.013 29.5208 71.9688 29.2383 71.9688 28.9336ZM72.6914 28.8438V28.9336C72.6914 29.1445 72.7161 29.3438 72.7656 29.5312C72.8151 29.7161 72.8893 29.8802 72.9883 30.0234C73.0898 30.1667 73.2161 30.2799 73.3672 30.3633C73.5182 30.444 73.694 30.4844 73.8945 30.4844C74.0924 30.4844 74.2656 30.444 74.4141 30.3633C74.5651 30.2799 74.6901 30.1667 74.7891 30.0234C74.888 29.8802 74.9622 29.7161 75.0117 29.5312C75.0638 29.3438 75.0898 29.1445 75.0898 28.9336V28.8438C75.0898 28.6354 75.0638 28.4388 75.0117 28.2539C74.9622 28.0664 74.8867 27.901 74.7852 27.7578C74.6862 27.612 74.5612 27.4974 74.4102 27.4141C74.2617 27.3307 74.0872 27.2891 73.8867 27.2891C73.6888 27.2891 73.5143 27.3307 73.3633 27.4141C73.2148 27.4974 73.0898 27.612 72.9883 27.7578C72.8893 27.901 72.8151 28.0664 72.7656 28.2539C72.7161 28.4388 72.6914 28.6354 72.6914 28.8438ZM77.4414 27.6133V31H76.7148V26.7734H77.4023L77.4414 27.6133ZM77.293 28.7266L76.957 28.7148C76.9596 28.4258 76.9974 28.1589 77.0703 27.9141C77.1432 27.6667 77.2513 27.4518 77.3945 27.2695C77.5378 27.0872 77.7161 26.9466 77.9297 26.8477C78.1432 26.7461 78.3906 26.6953 78.6719 26.6953C78.8698 26.6953 79.0521 26.724 79.2188 26.7812C79.3854 26.8359 79.5299 26.9232 79.6523 27.043C79.7747 27.1628 79.8698 27.3164 79.9375 27.5039C80.0052 27.6914 80.0391 27.918 80.0391 28.1836V31H79.3164V28.2188C79.3164 27.9974 79.2786 27.8203 79.2031 27.6875C79.1302 27.5547 79.026 27.4583 78.8906 27.3984C78.7552 27.3359 78.5964 27.3047 78.4141 27.3047C78.2005 27.3047 78.0221 27.3424 77.8789 27.418C77.7357 27.4935 77.6211 27.5977 77.5352 27.7305C77.4492 27.8633 77.3867 28.0156 77.3477 28.1875C77.3112 28.3568 77.293 28.5365 77.293 28.7266ZM80.0312 28.3281L79.5469 28.4766C79.5495 28.2448 79.5872 28.0221 79.6602 27.8086C79.7357 27.5951 79.8438 27.4049 79.9844 27.2383C80.1276 27.0716 80.3034 26.9401 80.5117 26.8438C80.7201 26.7448 80.9583 26.6953 81.2266 26.6953C81.4531 26.6953 81.6536 26.7253 81.8281 26.7852C82.0052 26.8451 82.1536 26.9375 82.2734 27.0625C82.3958 27.1849 82.4883 27.3424 82.5508 27.5352C82.6133 27.7279 82.6445 27.957 82.6445 28.2227V31H81.918V28.2148C81.918 27.9779 81.8802 27.7943 81.8047 27.6641C81.7318 27.5312 81.6276 27.4388 81.4922 27.3867C81.3594 27.332 81.2005 27.3047 81.0156 27.3047C80.8568 27.3047 80.7161 27.332 80.5938 27.3867C80.4714 27.4414 80.3685 27.5169 80.2852 27.6133C80.2018 27.707 80.138 27.8151 80.0938 27.9375C80.0521 28.0599 80.0312 28.1901 80.0312 28.3281ZM85.4922 31.0781C85.1979 31.0781 84.931 31.0286 84.6914 30.9297C84.4544 30.8281 84.25 30.6862 84.0781 30.5039C83.9089 30.3216 83.7786 30.1055 83.6875 29.8555C83.5964 29.6055 83.5508 29.332 83.5508 29.0352V28.8711C83.5508 28.5273 83.6016 28.2214 83.7031 27.9531C83.8047 27.6823 83.9427 27.4531 84.1172 27.2656C84.2917 27.0781 84.4896 26.9362 84.7109 26.8398C84.9323 26.7435 85.1615 26.6953 85.3984 26.6953C85.7005 26.6953 85.9609 26.7474 86.1797 26.8516C86.401 26.9557 86.582 27.1016 86.7227 27.2891C86.8633 27.474 86.9674 27.6927 87.0352 27.9453C87.1029 28.1953 87.1367 28.4688 87.1367 28.7656V29.0898H83.9805V28.5H86.4141V28.4453C86.4036 28.2578 86.3646 28.0755 86.2969 27.8984C86.2318 27.7214 86.1276 27.5755 85.9844 27.4609C85.8411 27.3464 85.6458 27.2891 85.3984 27.2891C85.2344 27.2891 85.0833 27.3242 84.9453 27.3945C84.8073 27.4622 84.6888 27.5638 84.5898 27.6992C84.4909 27.8346 84.4141 28 84.3594 28.1953C84.3047 28.3906 84.2773 28.6159 84.2773 28.8711V29.0352C84.2773 29.2357 84.3047 29.4245 84.3594 29.6016C84.4167 29.776 84.4987 29.9297 84.6055 30.0625C84.7148 30.1953 84.8464 30.2995 85 30.375C85.1562 30.4505 85.3333 30.4883 85.5312 30.4883C85.7865 30.4883 86.0026 30.4362 86.1797 30.332C86.3568 30.2279 86.5117 30.0885 86.6445 29.9141L87.082 30.2617C86.9909 30.3997 86.875 30.5312 86.7344 30.6562C86.5938 30.7812 86.4206 30.8828 86.2148 30.9609C86.0117 31.0391 85.7708 31.0781 85.4922 31.0781ZM91.7344 26.7734V27.3281H89.4492V26.7734H91.7344ZM90.2227 25.7461H90.9453V29.9531C90.9453 30.0964 90.9674 30.2044 91.0117 30.2773C91.056 30.3503 91.1133 30.3984 91.1836 30.4219C91.2539 30.4453 91.3294 30.457 91.4102 30.457C91.4701 30.457 91.5326 30.4518 91.5977 30.4414C91.6654 30.4284 91.7161 30.418 91.75 30.4102L91.7539 31C91.6966 31.0182 91.6211 31.0352 91.5273 31.0508C91.4362 31.069 91.3255 31.0781 91.1953 31.0781C91.0182 31.0781 90.8555 31.043 90.707 30.9727C90.5586 30.9023 90.4401 30.7852 90.3516 30.6211C90.2656 30.4544 90.2227 30.2305 90.2227 29.9492V25.7461ZM92.3125 28.9336V28.8438C92.3125 28.5391 92.3568 28.2565 92.4453 27.9961C92.5339 27.7331 92.6615 27.5052 92.8281 27.3125C92.9948 27.1172 93.1966 26.9661 93.4336 26.8594C93.6706 26.75 93.9362 26.6953 94.2305 26.6953C94.5273 26.6953 94.7943 26.75 95.0312 26.8594C95.2708 26.9661 95.474 27.1172 95.6406 27.3125C95.8099 27.5052 95.9388 27.7331 96.0273 27.9961C96.1159 28.2565 96.1602 28.5391 96.1602 28.8438V28.9336C96.1602 29.2383 96.1159 29.5208 96.0273 29.7812C95.9388 30.0417 95.8099 30.2695 95.6406 30.4648C95.474 30.6576 95.2721 30.8086 95.0352 30.918C94.8008 31.0247 94.5352 31.0781 94.2383 31.0781C93.9414 31.0781 93.6745 31.0247 93.4375 30.918C93.2005 30.8086 92.9974 30.6576 92.8281 30.4648C92.6615 30.2695 92.5339 30.0417 92.4453 29.7812C92.3568 29.5208 92.3125 29.2383 92.3125 28.9336ZM93.0352 28.8438V28.9336C93.0352 29.1445 93.0599 29.3438 93.1094 29.5312C93.1589 29.7161 93.2331 29.8802 93.332 30.0234C93.4336 30.1667 93.5599 30.2799 93.7109 30.3633C93.862 30.444 94.0378 30.4844 94.2383 30.4844C94.4362 30.4844 94.6094 30.444 94.7578 30.3633C94.9089 30.2799 95.0339 30.1667 95.1328 30.0234C95.2318 29.8802 95.306 29.7161 95.3555 29.5312C95.4076 29.3438 95.4336 29.1445 95.4336 28.9336V28.8438C95.4336 28.6354 95.4076 28.4388 95.3555 28.2539C95.306 28.0664 95.2305 27.901 95.1289 27.7578C95.0299 27.612 94.9049 27.4974 94.7539 27.4141C94.6055 27.3307 94.431 27.2891 94.2305 27.2891C94.0326 27.2891 93.8581 27.3307 93.707 27.4141C93.5586 27.4974 93.4336 27.612 93.332 27.7578C93.2331 27.901 93.1589 28.0664 93.1094 28.2539C93.0599 28.4388 93.0352 28.6354 93.0352 28.8438ZM100.805 31.0781C100.51 31.0781 100.243 31.0286 100.004 30.9297C99.7669 30.8281 99.5625 30.6862 99.3906 30.5039C99.2214 30.3216 99.0911 30.1055 99 29.8555C98.9089 29.6055 98.8633 29.332 98.8633 29.0352V28.8711C98.8633 28.5273 98.9141 28.2214 99.0156 27.9531C99.1172 27.6823 99.2552 27.4531 99.4297 27.2656C99.6042 27.0781 99.8021 26.9362 100.023 26.8398C100.245 26.7435 100.474 26.6953 100.711 26.6953C101.013 26.6953 101.273 26.7474 101.492 26.8516C101.714 26.9557 101.895 27.1016 102.035 27.2891C102.176 27.474 102.28 27.6927 102.348 27.9453C102.415 28.1953 102.449 28.4688 102.449 28.7656V29.0898H99.293V28.5H101.727V28.4453C101.716 28.2578 101.677 28.0755 101.609 27.8984C101.544 27.7214 101.44 27.5755 101.297 27.4609C101.154 27.3464 100.958 27.2891 100.711 27.2891C100.547 27.2891 100.396 27.3242 100.258 27.3945C100.12 27.4622 100.001 27.5638 99.9023 27.6992C99.8034 27.8346 99.7266 28 99.6719 28.1953C99.6172 28.3906 99.5898 28.6159 99.5898 28.8711V29.0352C99.5898 29.2357 99.6172 29.4245 99.6719 29.6016C99.7292 29.776 99.8112 29.9297 99.918 30.0625C100.027 30.1953 100.159 30.2995 100.312 30.375C100.469 30.4505 100.646 30.4883 100.844 30.4883C101.099 30.4883 101.315 30.4362 101.492 30.332C101.669 30.2279 101.824 30.0885 101.957 29.9141L102.395 30.2617C102.303 30.3997 102.188 30.5312 102.047 30.6562C101.906 30.7812 101.733 30.8828 101.527 30.9609C101.324 31.0391 101.083 31.0781 100.805 31.0781ZM104.523 30.3477L105.68 26.7734H106.418L104.898 31H104.414L104.523 30.3477ZM103.559 26.7734L104.75 30.3672L104.832 31H104.348L102.816 26.7734H103.559ZM108.812 31.0781C108.518 31.0781 108.251 31.0286 108.012 30.9297C107.775 30.8281 107.57 30.6862 107.398 30.5039C107.229 30.3216 107.099 30.1055 107.008 29.8555C106.917 29.6055 106.871 29.332 106.871 29.0352V28.8711C106.871 28.5273 106.922 28.2214 107.023 27.9531C107.125 27.6823 107.263 27.4531 107.438 27.2656C107.612 27.0781 107.81 26.9362 108.031 26.8398C108.253 26.7435 108.482 26.6953 108.719 26.6953C109.021 26.6953 109.281 26.7474 109.5 26.8516C109.721 26.9557 109.902 27.1016 110.043 27.2891C110.184 27.474 110.288 27.6927 110.355 27.9453C110.423 28.1953 110.457 28.4688 110.457 28.7656V29.0898H107.301V28.5H109.734V28.4453C109.724 28.2578 109.685 28.0755 109.617 27.8984C109.552 27.7214 109.448 27.5755 109.305 27.4609C109.161 27.3464 108.966 27.2891 108.719 27.2891C108.555 27.2891 108.404 27.3242 108.266 27.3945C108.128 27.4622 108.009 27.5638 107.91 27.6992C107.811 27.8346 107.734 28 107.68 28.1953C107.625 28.3906 107.598 28.6159 107.598 28.8711V29.0352C107.598 29.2357 107.625 29.4245 107.68 29.6016C107.737 29.776 107.819 29.9297 107.926 30.0625C108.035 30.1953 108.167 30.2995 108.32 30.375C108.477 30.4505 108.654 30.4883 108.852 30.4883C109.107 30.4883 109.323 30.4362 109.5 30.332C109.677 30.2279 109.832 30.0885 109.965 29.9141L110.402 30.2617C110.311 30.3997 110.195 30.5312 110.055 30.6562C109.914 30.7812 109.741 30.8828 109.535 30.9609C109.332 31.0391 109.091 31.0781 108.812 31.0781ZM112.023 27.4375V31H111.301V26.7734H112.004L112.023 27.4375ZM113.344 26.75L113.34 27.4219C113.28 27.4089 113.223 27.401 113.168 27.3984C113.116 27.3932 113.056 27.3906 112.988 27.3906C112.822 27.3906 112.674 27.4167 112.547 27.4688C112.419 27.5208 112.311 27.5938 112.223 27.6875C112.134 27.7812 112.064 27.8932 112.012 28.0234C111.962 28.151 111.93 28.2917 111.914 28.4453L111.711 28.5625C111.711 28.3073 111.736 28.0677 111.785 27.8438C111.837 27.6198 111.917 27.4219 112.023 27.25C112.13 27.0755 112.266 26.9401 112.43 26.8438C112.596 26.7448 112.794 26.6953 113.023 26.6953C113.076 26.6953 113.135 26.7018 113.203 26.7148C113.271 26.7253 113.318 26.737 113.344 26.75ZM115.27 30.5625L116.445 26.7734H117.219L115.523 31.6523C115.484 31.7565 115.432 31.8685 115.367 31.9883C115.305 32.1107 115.224 32.2266 115.125 32.3359C115.026 32.4453 114.906 32.5339 114.766 32.6016C114.628 32.6719 114.462 32.707 114.27 32.707C114.212 32.707 114.139 32.6992 114.051 32.6836C113.962 32.668 113.9 32.6549 113.863 32.6445L113.859 32.0586C113.88 32.0612 113.913 32.0638 113.957 32.0664C114.004 32.0716 114.036 32.0742 114.055 32.0742C114.219 32.0742 114.358 32.0521 114.473 32.0078C114.587 31.9661 114.684 31.8945 114.762 31.793C114.842 31.694 114.911 31.5573 114.969 31.3828L115.27 30.5625ZM114.406 26.7734L115.504 30.0547L115.691 30.8164L115.172 31.082L113.617 26.7734H114.406ZM61.2734 36.5859V41.625H60.5469V35.7734H61.2109L61.2734 36.5859ZM64.1211 37.8516V37.9336C64.1211 38.2409 64.0846 38.526 64.0117 38.7891C63.9388 39.0495 63.832 39.276 63.6914 39.4688C63.5534 39.6615 63.3828 39.8112 63.1797 39.918C62.9766 40.0247 62.7435 40.0781 62.4805 40.0781C62.2122 40.0781 61.9753 40.0339 61.7695 39.9453C61.5638 39.8568 61.3893 39.7279 61.2461 39.5586C61.1029 39.3893 60.9883 39.1862 60.9023 38.9492C60.819 38.7122 60.7617 38.4453 60.7305 38.1484V37.7109C60.7617 37.3984 60.8203 37.1185 60.9062 36.8711C60.9922 36.6237 61.1055 36.4128 61.2461 36.2383C61.3893 36.0612 61.5625 35.9271 61.7656 35.8359C61.9688 35.7422 62.2031 35.6953 62.4688 35.6953C62.7344 35.6953 62.9701 35.7474 63.1758 35.8516C63.3815 35.9531 63.5547 36.099 63.6953 36.2891C63.8359 36.4792 63.9414 36.707 64.0117 36.9727C64.0846 37.2357 64.1211 37.5286 64.1211 37.8516ZM63.3945 37.9336V37.8516C63.3945 37.6406 63.3724 37.4427 63.3281 37.2578C63.2839 37.0703 63.2148 36.9062 63.1211 36.7656C63.0299 36.6224 62.9128 36.5104 62.7695 36.4297C62.6263 36.3464 62.4557 36.3047 62.2578 36.3047C62.0755 36.3047 61.9167 36.3359 61.7812 36.3984C61.6484 36.4609 61.5352 36.5456 61.4414 36.6523C61.3477 36.7565 61.2708 36.8763 61.2109 37.0117C61.1536 37.1445 61.1107 37.2826 61.082 37.4258V38.4375C61.1341 38.6198 61.207 38.7917 61.3008 38.9531C61.3945 39.112 61.5195 39.2409 61.6758 39.3398C61.832 39.4362 62.0286 39.4844 62.2656 39.4844C62.4609 39.4844 62.6289 39.444 62.7695 39.3633C62.9128 39.2799 63.0299 39.1667 63.1211 39.0234C63.2148 38.8802 63.2839 38.7161 63.3281 38.5312C63.3724 38.3438 63.3945 38.1445 63.3945 37.9336ZM67.6289 39.0234V35.7734H68.3555V40H67.6641L67.6289 39.0234ZM67.7656 38.1328L68.0664 38.125C68.0664 38.4062 68.0365 38.6667 67.9766 38.9062C67.9193 39.1432 67.8255 39.349 67.6953 39.5234C67.5651 39.6979 67.3945 39.8346 67.1836 39.9336C66.9727 40.0299 66.7161 40.0781 66.4141 40.0781C66.2083 40.0781 66.0195 40.0482 65.8477 39.9883C65.6784 39.9284 65.5326 39.8359 65.4102 39.7109C65.2878 39.5859 65.1927 39.4232 65.125 39.2227C65.0599 39.0221 65.0273 38.7812 65.0273 38.5V35.7734H65.75V38.5078C65.75 38.6979 65.7708 38.8555 65.8125 38.9805C65.8568 39.1029 65.9154 39.2005 65.9883 39.2734C66.0638 39.3438 66.1471 39.3932 66.2383 39.4219C66.332 39.4505 66.4284 39.4648 66.5273 39.4648C66.8346 39.4648 67.0781 39.4062 67.2578 39.2891C67.4375 39.1693 67.5664 39.0091 67.6445 38.8086C67.7253 38.6055 67.7656 38.3802 67.7656 38.1328ZM70.1797 36.5859V41.625H69.4531V35.7734H70.1172L70.1797 36.5859ZM73.0273 37.8516V37.9336C73.0273 38.2409 72.9909 38.526 72.918 38.7891C72.8451 39.0495 72.7383 39.276 72.5977 39.4688C72.4596 39.6615 72.2891 39.8112 72.0859 39.918C71.8828 40.0247 71.6497 40.0781 71.3867 40.0781C71.1185 40.0781 70.8815 40.0339 70.6758 39.9453C70.4701 39.8568 70.2956 39.7279 70.1523 39.5586C70.0091 39.3893 69.8945 39.1862 69.8086 38.9492C69.7253 38.7122 69.668 38.4453 69.6367 38.1484V37.7109C69.668 37.3984 69.7266 37.1185 69.8125 36.8711C69.8984 36.6237 70.0117 36.4128 70.1523 36.2383C70.2956 36.0612 70.4688 35.9271 70.6719 35.8359C70.875 35.7422 71.1094 35.6953 71.375 35.6953C71.6406 35.6953 71.8763 35.7474 72.082 35.8516C72.2878 35.9531 72.4609 36.099 72.6016 36.2891C72.7422 36.4792 72.8477 36.707 72.918 36.9727C72.9909 37.2357 73.0273 37.5286 73.0273 37.8516ZM72.3008 37.9336V37.8516C72.3008 37.6406 72.2786 37.4427 72.2344 37.2578C72.1901 37.0703 72.1211 36.9062 72.0273 36.7656C71.9362 36.6224 71.819 36.5104 71.6758 36.4297C71.5326 36.3464 71.362 36.3047 71.1641 36.3047C70.9818 36.3047 70.8229 36.3359 70.6875 36.3984C70.5547 36.4609 70.4414 36.5456 70.3477 36.6523C70.2539 36.7565 70.1771 36.8763 70.1172 37.0117C70.0599 37.1445 70.0169 37.2826 69.9883 37.4258V38.4375C70.0404 38.6198 70.1133 38.7917 70.207 38.9531C70.3008 39.112 70.4258 39.2409 70.582 39.3398C70.7383 39.4362 70.9349 39.4844 71.1719 39.4844C71.3672 39.4844 71.5352 39.444 71.6758 39.3633C71.819 39.2799 71.9362 39.1667 72.0273 39.0234C72.1211 38.8802 72.1901 38.7161 72.2344 38.5312C72.2786 38.3438 72.3008 38.1445 72.3008 37.9336ZM76.9844 36.8438L77.8359 36.2383C78 36.1263 78.1263 36.0143 78.2148 35.9023C78.306 35.7878 78.3516 35.6315 78.3516 35.4336C78.3516 35.2799 78.2917 35.1406 78.1719 35.0156C78.0521 34.888 77.8828 34.8242 77.6641 34.8242C77.513 34.8242 77.3854 34.8594 77.2812 34.9297C77.1771 35 77.099 35.0938 77.0469 35.2109C76.9948 35.3255 76.9688 35.4518 76.9688 35.5898C76.9688 35.707 76.9974 35.8281 77.0547 35.9531C77.112 36.0781 77.1914 36.2083 77.293 36.3438C77.3945 36.4792 77.5104 36.6224 77.6406 36.7734L80.332 40H79.4648L77.2578 37.3594C77.0625 37.1302 76.888 36.9206 76.7344 36.7305C76.5807 36.5378 76.4596 36.3516 76.3711 36.1719C76.2852 35.9922 76.2422 35.806 76.2422 35.6133C76.2422 35.3164 76.3008 35.0664 76.418 34.8633C76.5378 34.6576 76.7044 34.5013 76.918 34.3945C77.1315 34.2878 77.3815 34.2344 77.668 34.2344C77.9466 34.2344 78.1862 34.2904 78.3867 34.4023C78.5898 34.5117 78.7461 34.6576 78.8555 34.8398C78.9648 35.0195 79.0195 35.2174 79.0195 35.4336C79.0195 35.6159 78.987 35.7799 78.9219 35.9258C78.8568 36.069 78.7656 36.2005 78.6484 36.3203C78.5339 36.4401 78.3997 36.5573 78.2461 36.6719L77.1172 37.5117C76.9297 37.6497 76.793 37.7812 76.707 37.9062C76.6211 38.0312 76.5651 38.1419 76.5391 38.2383C76.5156 38.3346 76.5039 38.4115 76.5039 38.4688C76.5039 38.6536 76.5443 38.8229 76.625 38.9766C76.7057 39.1302 76.8281 39.2539 76.9922 39.3477C77.1589 39.4388 77.3672 39.4844 77.6172 39.4844C77.8359 39.4844 78.0482 39.4349 78.2539 39.3359C78.4622 39.2344 78.6484 39.0911 78.8125 38.9062C78.9766 38.7188 79.1068 38.4961 79.2031 38.2383C79.3021 37.9779 79.3516 37.6901 79.3516 37.375H80C80 37.6328 79.9753 37.8763 79.9258 38.1055C79.8763 38.3346 79.7995 38.5482 79.6953 38.7461C79.5938 38.9414 79.4635 39.1198 79.3047 39.2812C79.2812 39.3047 79.263 39.332 79.25 39.3633C79.237 39.3945 79.2188 39.4219 79.1953 39.4453C79 39.6562 78.7591 39.8151 78.4727 39.9219C78.1888 40.026 77.9036 40.0781 77.6172 40.0781C77.2396 40.0781 76.9128 40.0091 76.6367 39.8711C76.3633 39.7331 76.1523 39.543 76.0039 39.3008C75.8555 39.0586 75.7812 38.7812 75.7812 38.4688C75.7812 38.2292 75.832 38.0182 75.9336 37.8359C76.0378 37.6536 76.1797 37.4831 76.3594 37.3242C76.5417 37.1654 76.75 37.0052 76.9844 36.8438ZM83.6172 36.5859V41.625H82.8906V35.7734H83.5547L83.6172 36.5859ZM86.4648 37.8516V37.9336C86.4648 38.2409 86.4284 38.526 86.3555 38.7891C86.2826 39.0495 86.1758 39.276 86.0352 39.4688C85.8971 39.6615 85.7266 39.8112 85.5234 39.918C85.3203 40.0247 85.0872 40.0781 84.8242 40.0781C84.556 40.0781 84.319 40.0339 84.1133 39.9453C83.9076 39.8568 83.7331 39.7279 83.5898 39.5586C83.4466 39.3893 83.332 39.1862 83.2461 38.9492C83.1628 38.7122 83.1055 38.4453 83.0742 38.1484V37.7109C83.1055 37.3984 83.1641 37.1185 83.25 36.8711C83.3359 36.6237 83.4492 36.4128 83.5898 36.2383C83.7331 36.0612 83.9062 35.9271 84.1094 35.8359C84.3125 35.7422 84.5469 35.6953 84.8125 35.6953C85.0781 35.6953 85.3138 35.7474 85.5195 35.8516C85.7253 35.9531 85.8984 36.099 86.0391 36.2891C86.1797 36.4792 86.2852 36.707 86.3555 36.9727C86.4284 37.2357 86.4648 37.5286 86.4648 37.8516ZM85.7383 37.9336V37.8516C85.7383 37.6406 85.7161 37.4427 85.6719 37.2578C85.6276 37.0703 85.5586 36.9062 85.4648 36.7656C85.3737 36.6224 85.2565 36.5104 85.1133 36.4297C84.9701 36.3464 84.7995 36.3047 84.6016 36.3047C84.4193 36.3047 84.2604 36.3359 84.125 36.3984C83.9922 36.4609 83.8789 36.5456 83.7852 36.6523C83.6914 36.7565 83.6146 36.8763 83.5547 37.0117C83.4974 37.1445 83.4544 37.2826 83.4258 37.4258V38.4375C83.4779 38.6198 83.5508 38.7917 83.6445 38.9531C83.7383 39.112 83.8633 39.2409 84.0195 39.3398C84.1758 39.4362 84.3724 39.4844 84.6094 39.4844C84.8047 39.4844 84.9727 39.444 85.1133 39.3633C85.2565 39.2799 85.3737 39.1667 85.4648 39.0234C85.5586 38.8802 85.6276 38.7161 85.6719 38.5312C85.7161 38.3438 85.7383 38.1445 85.7383 37.9336ZM89.8789 39.2773V37.1016C89.8789 36.9349 89.8451 36.7904 89.7773 36.668C89.7122 36.543 89.6133 36.4466 89.4805 36.3789C89.3477 36.3112 89.1836 36.2773 88.9883 36.2773C88.806 36.2773 88.6458 36.3086 88.5078 36.3711C88.3724 36.4336 88.2656 36.5156 88.1875 36.6172C88.112 36.7188 88.0742 36.8281 88.0742 36.9453H87.3516C87.3516 36.7943 87.3906 36.6445 87.4688 36.4961C87.5469 36.3477 87.6589 36.2135 87.8047 36.0938C87.9531 35.9714 88.1302 35.875 88.3359 35.8047C88.5443 35.7318 88.776 35.6953 89.0312 35.6953C89.3385 35.6953 89.6094 35.7474 89.8438 35.8516C90.0807 35.9557 90.2656 36.1133 90.3984 36.3242C90.5339 36.5326 90.6016 36.7943 90.6016 37.1094V39.0781C90.6016 39.2188 90.6133 39.3685 90.6367 39.5273C90.6628 39.6862 90.7005 39.8229 90.75 39.9375V40H89.9961C89.9596 39.9167 89.931 39.806 89.9102 39.668C89.8893 39.5273 89.8789 39.3971 89.8789 39.2773ZM90.0039 37.4375L90.0117 37.9453H89.2812C89.0755 37.9453 88.8919 37.9622 88.7305 37.9961C88.569 38.0273 88.4336 38.0755 88.3242 38.1406C88.2148 38.2057 88.1315 38.2878 88.0742 38.3867C88.0169 38.4831 87.9883 38.5964 87.9883 38.7266C87.9883 38.8594 88.0182 38.9805 88.0781 39.0898C88.138 39.1992 88.2279 39.2865 88.3477 39.3516C88.4701 39.4141 88.6198 39.4453 88.7969 39.4453C89.0182 39.4453 89.2135 39.3984 89.3828 39.3047C89.5521 39.2109 89.6862 39.0964 89.7852 38.9609C89.8867 38.8255 89.9414 38.694 89.9492 38.5664L90.2578 38.9141C90.2396 39.0234 90.1901 39.1445 90.1094 39.2773C90.0286 39.4102 89.9206 39.5378 89.7852 39.6602C89.6523 39.7799 89.4935 39.8802 89.3086 39.9609C89.1263 40.0391 88.9206 40.0781 88.6914 40.0781C88.4049 40.0781 88.1536 40.0221 87.9375 39.9102C87.724 39.7982 87.5573 39.6484 87.4375 39.4609C87.3203 39.2708 87.2617 39.0586 87.2617 38.8242C87.2617 38.5977 87.306 38.3984 87.3945 38.2266C87.4831 38.0521 87.6107 37.9076 87.7773 37.793C87.944 37.6758 88.1445 37.5872 88.3789 37.5273C88.6133 37.4674 88.875 37.4375 89.1641 37.4375H90.0039ZM92.8086 39.25L93.8945 35.7734H94.3711L94.2773 36.4648L93.1719 40H92.707L92.8086 39.25ZM92.0781 35.7734L93.0039 39.2891L93.0703 40H92.582L91.3555 35.7734H92.0781ZM95.4102 39.2617L96.293 35.7734H97.0117L95.7852 40H95.3008L95.4102 39.2617ZM94.4766 35.7734L95.5391 39.1914L95.6602 40H95.1992L94.0625 36.457L93.9688 35.7734H94.4766Z" fill="#061A23"/>
<path d="M60 22.7812H112.984V23.1719H60V22.7812Z" fill="#061A23"/>
</svg>
